<svg xmlns="http://www.w3.org/2000/svg" version="1.1" xmlns:xlink="http://www.w3.org/1999/xlink" xmlns:svgjs="http://svgjs.dev/svgjs" width="1440" height="560" preserveAspectRatio="none" viewBox="0 0 1440 560">
    <g mask="url(&quot;#SvgjsMask1000&quot;)" fill="none">
        <rect width="1440" height="560" x="0" y="0" fill="#0B1228"></rect>
        <path d="M0,550.38C115.411,569.813,250.396,605.445,343.639,534.712C437.319,463.648,415.605,318.343,452.887,206.826C485.399,109.576,550.042,23.63,548.78,-78.903C547.423,-189.151,515.191,-300.596,445.586,-386.103C374.956,-472.869,271.733,-529.231,162.502,-553.429C57.307,-576.733,-45.74,-534.754,-152.259,-518.546C-277.77,-499.448,-426.157,-536.304,-519.013,-449.727C-612.003,-363.025,-619.952,-215.234,-613.763,-88.246C-608.207,25.76,-548.502,126.388,-486.272,222.073C-431.451,306.365,-359.864,374.022,-276.528,430.286C-191.518,487.68,-101.147,533.348,0,550.38" fill="#0B1228"></path>
        <path d="M1440 1029.676C1528.429 1015.556 1619.749 1004.823 1691.069 950.671 1759.721 898.546 1791.416 815.241 1826.26 736.399 1860.693 658.487 1886.154 579.891 1892.476 494.944 1900.201 391.142 1930.075 272.812 1866.92 190.072 1803.742 107.30200000000002 1682.05 102.96100000000001 1579.499 84.91199999999998 1486.562 68.555 1389.294 54.363 1302.195 90.678 1218.953 125.38499999999999 1164.329 202.916 1115.15 278.516 1071.136 346.177 1050.281 422.523 1034.792 501.74 1018.533 584.896 1007.8779999999999 667.105 1022.863 750.5 1041.469 854.0509999999999 1044.077 981.501 1131.511 1040.018 1218.783 1098.426 1336.3 1046.234 1440 1029.676" fill="#336"></path>
    </g>
    <defs>
        <mask id="SvgjsMask1000">
            <rect width="1440" height="560" fill="#ffffff"></rect>
        </mask>
    </defs>
</svg>